<svg xmlns="http://www.w3.org/2000/svg" viewBox="0 0 48 44">
  <polygon points="22,2 40,12 40,32 22,42 4,32 4,12"
           fill="none" stroke="#00d4ff" stroke-width="1.5"/>

  <polygon points="22,9 34,16 34,30 22,37 10,30 10,16"
           fill="none" stroke="#00ff9d" stroke-width="1" opacity="0.5"/>

  <circle cx="22" cy="22" r="3" fill="#00d4ff"/>

  <line x1="22" y1="19" x2="22" y2="9" stroke="#00d4ff" stroke-width="1" opacity="0.6"/>
  <line x1="22" y1="25" x2="22" y2="35" stroke="#00d4ff" stroke-width="1" opacity="0.6"/>
  <line x1="19" y1="20.5" x2="10" y2="16" stroke="#00d4ff" stroke-width="1" opacity="0.6"/>
  <line x1="25" y1="20.5" x2="34" y2="16" stroke="#00d4ff" stroke-width="1" opacity="0.6"/>
  <line x1="19" y1="23.5" x2="10" y2="28" stroke="#00d4ff" stroke-width="1" opacity="0.6"/>
  <line x1="25" y1="23.5" x2="34" y2="28" stroke="#00d4ff" stroke-width="1" opacity="0.6"/>

  <circle cx="22" cy="9" r="2" fill="#00ff9d"/>
  <circle cx="22" cy="35" r="2" fill="#00ff9d"/>
  <circle cx="10" cy="16" r="2" fill="#00ff9d"/>
  <circle cx="34" cy="16" r="2" fill="#00ff9d"/>
  <circle cx="10" cy="28" r="2" fill="#00ff9d"/>
  <circle cx="34" cy="28" r="2" fill="#00ff9d"/>
</svg>